<?xml version="1.0" encoding="UTF-8"?>
<!DOCTYPE svg PUBLIC "-//W3C//DTD SVG 1.1//EN" "http://www.w3.org/Graphics/SVG/1.1/DTD/svg11.dtd">
<!-- Creator: CorelDRAW 2020 (64 Bit) -->
<svg xmlns="http://www.w3.org/2000/svg" xml:space="preserve" width="14.913mm" height="14.9129mm" version="1.1" style="shape-rendering:geometricPrecision; text-rendering:geometricPrecision; image-rendering:optimizeQuality; fill-rule:evenodd; clip-rule:evenodd"
viewBox="0 0 665.09 665.08"
 xmlns:xlink="http://www.w3.org/1999/xlink"
 xmlns:xodm="http://www.corel.com/coreldraw/odm/2003">
 <defs>
  <style type="text/css">
   <![CDATA[
    .fil0 {fill:#606062;fill-rule:nonzero}
   ]]>
  </style>
 </defs>
 <g id="Camada_x0020_1">
  <metadata id="CorelCorpID_0Corel-Layer"/>
  <path class="fil0" d="M665.09 332.54c0,-183.65 -148.89,-332.54 -332.55,-332.54 -183.65,0 -332.54,148.88 -332.54,332.54 0,183.67 148.88,332.55 332.54,332.55 183.67,0 332.55,-148.88 332.55,-332.55zm-309.06 184.83l-148.19 0c0,0 90.67,-53.85 99.94,-151.38 -97.42,8.95 -151.43,99.51 -151.43,99.51l0 -265.91c0,0 54.01,90.56 151.43,99.51 -4.26,-61.55 -39.52,-127.92 -99.94,-151.38l266.71 0c0,0 -90.67,53.86 -99.93,151.38 97.4,-8.95 151.41,-100.12 151.41,-100.12l0 266.52c0,0 -54.01,-90.56 -151.41,-99.51 9.26,97.53 99.93,151.38 99.93,151.38l-118.52 0z"/>
 </g>
</svg>
