<?xml version="1.0" encoding="UTF-8"?>
<!DOCTYPE svg PUBLIC "-//W3C//DTD SVG 1.1//EN" "http://www.w3.org/Graphics/SVG/1.1/DTD/svg11.dtd">
<!-- Creator: CorelDRAW 2020 (64 Bit) -->
<svg xmlns="http://www.w3.org/2000/svg" xml:space="preserve" width="13.8mm" height="14.3608mm" version="1.1" style="shape-rendering:geometricPrecision; text-rendering:geometricPrecision; image-rendering:optimizeQuality; fill-rule:evenodd; clip-rule:evenodd"
viewBox="0 0 49.45 51.46"
 xmlns:xlink="http://www.w3.org/1999/xlink"
 xmlns:xodm="http://www.corel.com/coreldraw/odm/2003">
 <defs>
  <style type="text/css">
   <![CDATA[
    .fil0 {fill:#606062;fill-rule:nonzero}
   ]]>
  </style>
 </defs>
 <g id="Camada_x0020_1">
  <metadata id="CorelCorpID_0Corel-Layer"/>
  <g id="_2492732304160">
   <path class="fil0" d="M24.16 16.95l3.8 0.74 -10.02 3.3 2.55 -2.86 -1.01 -3.05 -3.07 1.01 -1.01 3.08 -2.95 -8.95 2.72 2.15 3.09 -1.02 -1.04 -3.15 -3.72 -0.76 9.89 -3.26 -2.49 2.79 1.04 3.16 3.1 -1.02 0.89 -3.35 2.96 8.97 -2.59 -1.92 -3.17 1.04 1.02 3.08zm16.62 -13.81c0,0 -1.3,1.92 -4.05,3.08 -2.75,1.16 -5.98,1.16 -5.98,1.16 0,0 1.53,-10.67 -12.34,-6.36 -9.02,2.81 -11.18,7.32 -11.18,7.32l7.9 21.4c0,0 3.81,-5.42 11.18,-6.94 13.11,-2.7 8.1,6.94 8.1,6.94 0,0 3.42,0 8.24,-1.92 4.97,-1.98 6.8,-4.82 6.8,-4.82l-8.67 -19.85z"/>
   <path class="fil0" d="M13.91 49.2c1.89,0.9 3.87,1.58 5.85,2.26l-14.93 -41.84c-0.46,-1.29 -1.88,-1.97 -3.18,-1.5 -1.29,0.46 -1.97,1.88 -1.51,3.18l13.49 37.82c0.09,0.04 0.18,0.05 0.27,0.1z"/>
  </g>
 </g>
</svg>
